<?xml version="1.0" encoding="UTF-8"?>
<svg xmlns="http://www.w3.org/2000/svg" xmlns:xlink="http://www.w3.org/1999/xlink" width="100px" height="25px" viewBox="0 0 97 25" version="1.1">
<g id="surface1">
<path style=" stroke:none;fill-rule:nonzero;fill:rgb(0.392157%,0.392157%,0.392157%);fill-opacity:1;" d="M 23.667969 7.804688 C 26.269531 14.132812 23.285156 21.390625 17.011719 24.011719 C 10.734375 26.636719 3.535156 23.628906 0.9375 17.300781 C -1.664062 10.96875 1.316406 3.710938 7.59375 1.089844 C 13.871094 -1.53125 21.066406 1.472656 23.667969 7.804688 Z M 23.667969 7.804688 "/>
<path style=" stroke:none;fill-rule:nonzero;fill:rgb(0.392157%,0.392157%,0.392157%);fill-opacity:1;" d="M 16.71875 1.808594 C 22.601562 4.265625 25.394531 11.070312 22.957031 17.003906 C 20.519531 22.9375 13.773438 25.757812 7.890625 23.296875 C 2.003906 20.839844 -0.789062 14.039062 1.648438 8.101562 C 4.085938 2.167969 10.832031 -0.648438 16.71875 1.808594 Z M 16.71875 1.808594 "/>
<path style=" stroke:none;fill-rule:nonzero;fill:rgb(86.666667%,89.411765%,37.647059%);fill-opacity:1;" d="M 22.535156 10.871094 C 22.535156 16.566406 17.953125 21.1875 12.304688 21.1875 C 6.65625 21.1875 2.074219 16.566406 2.074219 10.871094 C 2.074219 5.175781 6.65625 0.554688 12.304688 0.554688 C 17.953125 0.554688 22.535156 5.175781 22.535156 10.871094 Z M 22.535156 10.871094 "/>
<path style=" stroke:none;fill-rule:nonzero;fill:rgb(0.392157%,0.392157%,0.392157%);fill-opacity:1;" d="M 12.300781 21.457031 C 6.4375 21.457031 1.683594 16.664062 1.683594 10.75 C 1.683594 4.835938 6.4375 0.0429688 12.300781 0.0429688 C 18.167969 0.0429688 22.921875 4.835938 22.921875 10.75 C 22.921875 16.664062 18.167969 21.457031 12.300781 21.457031 Z M 12.300781 0.835938 C 6.863281 0.835938 2.453125 5.28125 2.457031 10.769531 C 2.457031 16.253906 6.871094 20.699219 12.3125 20.691406 C 17.75 20.6875 22.15625 16.234375 22.148438 10.75 C 22.144531 5.265625 17.738281 0.824219 12.300781 0.816406 Z M 12.300781 0.835938 "/>
<path style=" stroke:none;fill-rule:nonzero;fill:rgb(65.490196%,86.27451%,85.490196%);fill-opacity:1;" d="M 19.082031 15.59375 C 19.082031 20.324219 15.277344 24.15625 10.589844 24.15625 C 5.898438 24.15625 2.097656 20.324219 2.097656 15.59375 C 2.097656 10.867188 5.898438 7.03125 10.589844 7.03125 C 15.277344 7.03125 19.082031 10.867188 19.082031 15.59375 Z M 19.082031 15.59375 "/>
<path style=" stroke:none;fill-rule:nonzero;fill:rgb(0.392157%,0.392157%,0.392157%);fill-opacity:1;" d="M 10.605469 24.546875 C 9.976562 24.546875 9.347656 24.480469 8.730469 24.347656 C 3.9375 23.3125 0.882812 18.554688 1.910156 13.722656 C 2.9375 8.886719 7.65625 5.808594 12.449219 6.84375 C 17.242188 7.878906 20.296875 12.636719 19.269531 17.46875 C 18.394531 21.585938 14.792969 24.53125 10.617188 24.546875 Z M 10.585938 7.417969 C 6.332031 7.417969 2.800781 10.738281 2.5 15.019531 C 2.203125 19.300781 5.238281 23.085938 9.453125 23.691406 C 13.664062 24.292969 17.625 21.503906 18.515625 17.308594 C 19.027344 14.894531 18.429688 12.375 16.890625 10.453125 C 15.351562 8.535156 13.035156 7.417969 10.585938 7.417969 Z M 10.585938 7.417969 "/>
<path style=" stroke:none;fill-rule:nonzero;fill:rgb(96.470588%,87.45098%,24.705882%);fill-opacity:1;" d="M 23.273438 15.957031 C 23.273438 18.890625 20.917969 21.269531 18.007812 21.269531 C 15.097656 21.269531 12.738281 18.890625 12.738281 15.957031 C 12.738281 13.019531 15.097656 10.644531 18.007812 10.644531 C 20.917969 10.644531 23.273438 13.019531 23.273438 15.957031 Z M 23.273438 15.957031 "/>
<path style=" stroke:none;fill-rule:nonzero;fill:rgb(0.392157%,0.392157%,0.392157%);fill-opacity:1;" d="M 18.007812 21.65625 C 14.882812 21.65625 12.351562 19.105469 12.351562 15.957031 C 12.351562 12.808594 14.882812 10.253906 18.007812 10.253906 C 21.128906 10.253906 23.660156 12.808594 23.660156 15.957031 C 23.65625 19.101562 21.128906 21.652344 18.007812 21.65625 Z M 18.007812 11.03125 C 15.308594 11.03125 13.121094 13.234375 13.121094 15.957031 C 13.121094 18.675781 15.308594 20.882812 18.003906 20.882812 C 20.703125 20.882812 22.890625 18.675781 22.890625 15.957031 C 22.886719 13.238281 20.703125 11.035156 18.007812 11.03125 Z M 18.007812 11.03125 "/>
<path style=" stroke:none;fill-rule:nonzero;fill:rgb(13.72549%,12.156863%,12.54902%);fill-opacity:1;" d="M 33.5 13.328125 L 31.640625 13.328125 L 30.882812 16.945312 L 28.761719 16.945312 L 30.824219 7.179688 L 34.820312 7.179688 C 36.449219 7.179688 37.558594 8.328125 37.558594 9.644531 C 37.558594 12.269531 35.488281 13.328125 33.5 13.328125 Z M 33.757812 8.613281 L 32.628906 8.613281 L 31.929688 11.890625 L 32.65625 11.890625 C 34.082031 11.890625 35.386719 11.570312 35.386719 9.859375 C 35.394531 9.074219 34.585938 8.605469 33.757812 8.605469 Z M 33.757812 8.613281 "/>
<path style=" stroke:none;fill-rule:nonzero;fill:rgb(13.72549%,12.156863%,12.54902%);fill-opacity:1;" d="M 44.320312 14.332031 C 44.125 15.1875 44.007812 16.0625 43.972656 16.941406 L 41.925781 16.941406 C 41.953125 16.574219 42.085938 15.886719 42.203125 15.210938 C 41.679688 16.164062 40.824219 17.105469 39.398438 17.105469 C 37.929688 17.105469 37.1875 16.113281 37.1875 14.757812 C 37.1875 11.460938 40.109375 9.425781 42.890625 9.425781 C 43.734375 9.425781 44.824219 9.570312 45.332031 9.761719 Z M 42.507812 10.789062 C 40.835938 10.789062 39.3125 12.574219 39.3125 14.539062 C 39.3125 15.199219 39.542969 15.730469 40.292969 15.730469 C 41.3125 15.730469 42.285156 14.324219 42.691406 12.566406 L 43.085938 10.867188 C 42.898438 10.804688 42.703125 10.777344 42.507812 10.789062 Z M 42.507812 10.789062 "/>
<path style=" stroke:none;fill-rule:nonzero;fill:rgb(13.72549%,12.156863%,12.54902%);fill-opacity:1;" d="M 52.09375 15.960938 C 51.441406 18.921875 50.367188 20.269531 47.140625 20.269531 C 46.28125 20.269531 45.429688 20.128906 44.613281 19.859375 L 45.003906 18.410156 C 45.652344 18.746094 46.371094 18.917969 47.097656 18.90625 C 48.914062 18.90625 49.609375 17.941406 49.945312 16.5625 L 50.175781 15.597656 C 49.480469 16.53125 48.753906 16.941406 47.546875 16.941406 C 46.050781 16.941406 45.324219 16.003906 45.324219 14.761719 C 45.324219 11.453125 48.316406 9.445312 51.109375 9.445312 C 51.90625 9.449219 52.699219 9.558594 53.46875 9.765625 Z M 50.671875 10.804688 C 49 10.804688 47.445312 12.53125 47.445312 14.582031 C 47.445312 15.242188 47.679688 15.726562 48.390625 15.726562 C 49.757812 15.726562 50.511719 13.96875 50.816406 12.664062 L 51.238281 10.890625 C 51.054688 10.832031 50.863281 10.804688 50.671875 10.804688 Z M 50.671875 10.804688 "/>
<path style=" stroke:none;fill-rule:nonzero;fill:rgb(13.72549%,12.156863%,12.54902%);fill-opacity:1;" d="M 60.621094 8.964844 C 60 8.65625 59.3125 8.488281 58.617188 8.480469 C 57.730469 8.480469 56.410156 8.890625 56.410156 9.902344 C 56.410156 11.324219 60.246094 11.105469 60.246094 13.800781 C 60.246094 15.9375 58.238281 17.113281 55.785156 17.113281 C 54.824219 17.128906 53.867188 16.984375 52.953125 16.683594 L 53.460938 15.097656 C 54.199219 15.476562 55.019531 15.664062 55.847656 15.636719 C 56.878906 15.621094 58.023438 15.152344 58.023438 14.070312 C 58.023438 12.53125 54.21875 12.691406 54.21875 10.214844 C 54.21875 7.886719 56.527344 7.023438 58.742188 7.023438 C 59.558594 7.023438 60.363281 7.171875 61.125 7.460938 Z M 60.621094 8.964844 "/>
<path style=" stroke:none;fill-rule:nonzero;fill:rgb(13.72549%,12.156863%,12.54902%);fill-opacity:1;" d="M 62.925781 13.835938 C 62.855469 14.058594 62.820312 14.289062 62.824219 14.523438 C 62.824219 15.515625 63.578125 15.910156 64.464844 15.910156 C 65.257812 15.898438 66.03125 15.664062 66.703125 15.238281 L 66.628906 16.539062 C 65.761719 16.9375 64.816406 17.125 63.863281 17.09375 C 62.277344 17.09375 60.78125 16.40625 60.78125 14.605469 C 60.78125 11.6875 62.976562 9.433594 65.5625 9.433594 C 66.742188 9.433594 68.074219 9.859375 68.074219 11.207031 C 68.074219 13.527344 64.75 13.835938 62.925781 13.835938 Z M 65.378906 10.628906 C 64.277344 10.628906 63.476562 11.785156 63.113281 12.738281 C 64.421875 12.738281 66.25 12.503906 66.25 11.347656 C 66.269531 10.804688 65.875 10.628906 65.386719 10.628906 Z M 65.378906 10.628906 "/>
<path style=" stroke:none;fill-rule:nonzero;fill:rgb(13.72549%,12.156863%,12.54902%);fill-opacity:1;" d="M 74.773438 15.960938 C 74.117188 18.921875 73.046875 20.269531 69.816406 20.269531 C 68.960938 20.269531 68.105469 20.128906 67.292969 19.859375 L 67.683594 18.410156 C 68.328125 18.746094 69.050781 18.917969 69.777344 18.90625 C 71.59375 18.90625 72.289062 17.941406 72.625 16.5625 L 72.859375 15.597656 C 72.160156 16.53125 71.433594 16.941406 70.226562 16.941406 C 68.730469 16.941406 68.003906 16.003906 68.003906 14.761719 C 68.003906 11.453125 70.996094 9.445312 73.785156 9.445312 C 74.582031 9.449219 75.375 9.554688 76.144531 9.765625 Z M 73.351562 10.804688 C 71.679688 10.804688 70.125 12.53125 70.125 14.582031 C 70.125 15.242188 70.355469 15.726562 71.070312 15.726562 C 72.433594 15.726562 73.1875 13.96875 73.496094 12.664062 L 73.917969 10.890625 C 73.730469 10.832031 73.539062 10.804688 73.347656 10.804688 Z M 73.351562 10.804688 "/>
<path style=" stroke:none;fill-rule:nonzero;fill:rgb(13.72549%,12.156863%,12.54902%);fill-opacity:1;" d="M 82.820312 15.285156 C 82.703125 15.832031 82.609375 16.382812 82.542969 16.941406 L 80.671875 16.941406 L 80.867188 15.621094 C 80.25 16.488281 79.480469 17.09375 78.273438 17.09375 C 77.09375 17.09375 76.269531 16.5 76.269531 15.277344 C 76.265625 14.996094 76.289062 14.71875 76.34375 14.441406 L 77.375 9.5625 L 79.378906 9.5625 L 78.460938 14.011719 C 78.394531 14.261719 78.355469 14.515625 78.34375 14.773438 C 78.34375 15.332031 78.605469 15.738281 79.304688 15.738281 C 80.394531 15.738281 80.902344 14.730469 81.105469 13.792969 L 82 9.570312 L 84.003906 9.570312 Z M 82.820312 15.285156 "/>
<path style=" stroke:none;fill-rule:nonzero;fill:rgb(13.72549%,12.156863%,12.54902%);fill-opacity:1;" d="M 89.375 11.34375 C 89.183594 11.273438 88.984375 11.238281 88.785156 11.242188 C 87.460938 11.242188 86.722656 12.53125 86.472656 13.703125 L 85.792969 16.941406 L 83.769531 16.941406 L 84.976562 11.226562 C 85.101562 10.691406 85.195312 10.148438 85.265625 9.601562 L 87.152344 9.601562 L 86.878906 11.109375 C 87.328125 10.203125 88.214844 9.425781 89.261719 9.425781 C 89.457031 9.421875 89.652344 9.445312 89.84375 9.5 Z M 89.375 11.34375 "/>
<path style=" stroke:none;fill-rule:nonzero;fill:rgb(13.72549%,12.156863%,12.54902%);fill-opacity:1;" d="M 92.308594 17.09375 C 90.695312 17.09375 89.214844 16.203125 89.214844 14.429688 C 89.214844 11.585938 91.03125 9.433594 93.921875 9.433594 C 95.53125 9.433594 97 10.296875 97 12.085938 C 97 14.914062 95.15625 17.09375 92.308594 17.09375 Z M 93.574219 10.796875 C 92.074219 10.796875 91.320312 12.933594 91.320312 14.207031 C 91.320312 15.085938 91.65625 15.730469 92.597656 15.730469 C 94.066406 15.730469 94.910156 13.578125 94.910156 12.320312 C 94.910156 11.449219 94.515625 10.804688 93.574219 10.804688 Z M 93.574219 10.796875 "/>
</g>
</svg>
